<?xml version="1.0" encoding="UTF-8"?>
<svg id="Layer_1" data-name="Layer 1" xmlns="http://www.w3.org/2000/svg" width="48" height="48" viewBox="0 0 48 48">
  <path d="M16.9328,7.0079c0,.6037.0025.9395.0025.9395-.0039,2.9611-.0022,5.9221-.0022,8.8832,0,.4318-.0003.8636,0,1.2955.0022,2.7554.0079,5.5108.0041,8.2662-.0009.6095.2121,1.0995.7088,1.4599.0998.0725.1989.146.2998.217,4.406,3.0992,8.8128,6.1973,13.2177,9.2982.6808.4792,1.3564.9659,2.0273,1.4589.3902.2868.5648.6943.5856,1.1705.0116.2669.0108.5344.0226.8013.0064.1429.0171.2872.0442.4273.0792.4086.304.6365.7173.6945.2736.0383.5529.0495.8297.0497,3.663.0031,7.326.0031,10.9891,0,.2871-.0002.5769-.0108.8605-.0512.3833-.0547.6405-.2751.6997-.6726.0346-.2324.0575-.469.0578-.7037.0038-2.9302.0028-5.8604.0017-8.7907,0-.1746-.0093-.3493-.0181-.5238-.0211-.4191-.1795-.7791-.4878-1.0641-.2035-.1882-.4159-.3678-.6336-.5395l-11.8036-9.286c-.1869-.1388-.3984-.2541-.6145-.3415-.2202-.089-.4069-.0001-.516.2067-.0422.08-.076.1722-.0837.2614-.0264.3063-.0555.6137-.0554.9206l.0126,10.2709c-.0005.9868.0034,1.9736-.0064,2.9602-.0016.1597-.044.3272-.1042.4763-.0871.2158-.2742.3073-.502.2592-.1284-.0271-.2591-.0748-.3707-.1427-.2366-.1439-.4615-.3071-.6911-.4626-.5515-.3733-.7633-.8969-.7609-1.5559.0161-4.4311.0193-8.8623.0245-13.2934.0006-.5447-.0025-1.0897-.0205-1.6341-.0142-.4277-.1803-.7978-.4969-1.0926-.1578-.147-.3162-.2941-.4825-.4312,0,0-11.241-9.2557-12.1888-10.0361s-1.2666-.2988-1.2666.3049Z" style="fill: #f4f4f4;"/>
  <path d="M1.2193,6.6127c-.1453-.1114-.3069-.212-.4761-.2796-.3449-.1377-.611-.0731-.6925.2906C.0018,6.8418.0027,7.134.0026,7.3581-.0006,16.5715-.0003,25.785.0006,34.9984c0,.154.0047.3087.0196.4618.0387.3953.208.7274.5056.9914.1076.0954.2177.1889.333.2748,1.9377,1.4435,3.8832,2.8768,5.8111,4.3332.6034.4559,1.2559.6642,2.0052.6572,1.4406-.0135,2.8814-.0023,4.3221-.0058.2051-.0005.4117-.0147.6149-.0422.4069-.055.6551-.2763.7347-.6798.0453-.2295.0583-.4686.0585-.7033l.0016-22.1493c0-.2055-.0042-.4116-.021-.6162-.0314-.3809-.1653-.7216-.4531-.9833-.2279-.2072-.4613-.4096-.7042-.5988L1.2193,6.6127Z" style="fill: #f4f4f4;"/>
</svg>