<?xml version="1.0" encoding="UTF-8"?>
<svg id="Layer_1" data-name="Layer 1" xmlns="http://www.w3.org/2000/svg" width="48" height="48" viewBox="0 0 48 48">
  <path d="M18.1994,6.703c.9478.7804,12.1888,10.0361,12.1888,10.0361.1663.1372.3246.2843.4825.4312.3166.2948.4827.6649.4969,1.0926.018.5443.0212,1.0894.0205,1.6341-.0052,4.4311-.0084,8.8623-.0245,13.2934-.0024.659.2094,1.1826.7609,1.5559.2296.1554.4545.3186.6911.4626.1117.0679.2424.1156.3707.1427.2279.0481.4149-.0434.502-.2592.0602-.1491.1026-.3165.1042-.4763.0098-.9867.0059-1.9735.0064-2.9602l-.0126-10.2709c0-.307.029-.6144.0554-.9206.0077-.0892.0415-.1813.0837-.2614.1091-.2068.2958-.2957.516-.2067.216.0873.4276.2026.6145.3415l11.8036,9.286c.2177.1717.4301.3513.6336.5395.3083.2851.4667.6451.4878,1.0641.0088.1745.018.3492.0181.5238.0011,2.9302.0021,5.8604-.0017,8.7907-.0003.2347-.0232.4713-.0578.7037-.0591.3976-.3163.618-.6997.6726-.2836.0405-.5734.051-.8605.0512-3.663.0032-7.326.0031-10.9891,0-.2768-.0002-.5561-.0114-.8297-.0497-.4133-.0579-.6381-.2859-.7173-.6945-.0272-.1401-.0379-.2844-.0442-.4273-.0118-.2669-.011-.5344-.0226-.8013-.0208-.4762-.1954-.8837-.5856-1.1705-.6708-.493-1.3465-.9797-2.0273-1.4589-4.4049-3.1009-8.8117-6.199-13.2177-9.2982-.1009-.071-.2-.1445-.2998-.217-.4966-.3605-.7096-.8504-.7088-1.4599.0038-2.7554-.0019-5.5108-.0041-8.2662-.0003-.4318,0-.8636,0-1.2955,0-2.9611-.0017-5.9221.0022-8.8832,0,0-.0025-.3358-.0025-.9395s.3188-1.0853,1.2666-.3049ZM1.2193,6.6127c-.1453-.1114-.3069-.212-.4761-.2796-.3449-.1377-.611-.0731-.6925.2906C.0018,6.8418.0027,7.134.0026,7.3581-.0006,16.5715-.0003,25.785.0006,34.9984c0,.154.0047.3087.0196.4618.0387.3953.208.7274.5056.9914.1076.0954.2177.1889.333.2748,1.9377,1.4435,3.8832,2.8768,5.8111,4.3332.6034.4559,1.2559.6642,2.0052.6572,1.4406-.0135,2.8814-.0023,4.3221-.0058.2051-.0005.4117-.0147.6149-.0422.4069-.055.6551-.2763.7347-.6798.0453-.2295.0583-.4686.0585-.7033l.0016-22.1493c0-.2055-.0042-.4116-.021-.6162-.0314-.3809-.1653-.7216-.4531-.9833-.2279-.2072-.4613-.4096-.7042-.5988L1.2193,6.6127Z" style="fill: #1d1d1d;"/>
</svg>