<?xml version="1.0" encoding="UTF-8"?>
<svg id="BADGES" xmlns="http://www.w3.org/2000/svg" viewBox="0 0 653.63 267.96">
  <defs>
    <style>
      .cls-1 {
        fill: #fd4301;
      }
    </style>
  </defs>
  <ellipse class="cls-1" cx="588.88" cy="203.73" rx="64.75" ry="64.23"/>
  <path d="M580.37,2.09v122.1h-29.78V2.09h29.78ZM211.18,77.43c-12.43,62.8-102.79,66.05-120.12,5.21C79.99,43.78,103.21,3.04,144.95.18c44.73-3.06,74.81,33.88,66.23,77.25ZM147.3,28.96c-39.96,3.3-37.93,69.3,3.59,68.83,43.18-.49,42.11-72.6-3.59-68.83ZM429.12,2.09v122.1h29.78v-47l.5-.5h43.67v47.5h30.12V2.09h-30.12v46.5h-43.67l-.5-.5V2.09h-29.78ZM309.49,49.25c-8.91,45.92,25.74,83.93,72.52,76.17,14.62-2.43,28.89-10.63,37.41-22.78l-24.64-16.22-.45.11c-7.86,10.66-23.47,13.37-35.55,9.14-25.5-8.94-27.6-49.94-4.49-62.86,12.54-7.01,31.09-4.83,40.04,6.94l.45.11,24.62-16.47C406.53,6.16,385.65-1.3,364.47.19c-27.68,1.95-49.74,22.01-54.98,49.07ZM216.97,2.09v28.43h28.44v93.67h29.78V30.53h28.28l.5-.5V2.09h-87ZM8.49,2.09v122.1h75.63v-28.1h-45.51V2.09H8.49ZM79.88,195.99c-6.99-3.16-15.03-5.13-24.13-5.91l-7.82-.67c-5.22-.44-8.88-1.77-10.98-3.99-2.11-2.22-3.16-4.88-3.16-7.99,0-2.33.58-4.44,1.75-6.32,1.17-1.88,2.88-3.35,5.16-4.41,2.27-1.05,5.07-1.58,8.4-1.58,3.55,0,6.57.64,9.07,1.91,2.5,1.28,4.41,3.02,5.74,5.24,1.33,2.22,2,4.66,2,7.32h29.95c0-7.99-1.83-15-5.49-21.05-3.66-6.05-8.96-10.73-15.89-14.06-6.94-3.33-15.39-4.99-25.38-4.99-9.21,0-17.2,1.5-23.96,4.49-6.77,3-12.01,7.32-15.73,12.98-3.72,5.66-5.57,12.48-5.57,20.47,0,11.21,3.72,20.19,11.15,26.96,7.43,6.77,17.42,10.71,29.95,11.81l7.82.67c7.1.56,12.15,1.8,15.14,3.74,3,1.94,4.49,4.69,4.49,8.24,0,2.77-.81,5.16-2.41,7.16-1.61,2-3.94,3.55-6.99,4.66-3.05,1.11-6.74,1.66-11.07,1.66-4.99,0-9.1-.67-12.31-2-3.22-1.33-5.63-3.19-7.24-5.57-1.61-2.39-2.41-5.02-2.41-7.9H0C0,234.84,1.97,241.92,5.91,248.07c3.94,6.16,9.76,11.01,17.47,14.56,7.71,3.55,17.22,5.33,28.54,5.33,10.54,0,19.55-1.61,27.04-4.83,7.49-3.22,13.26-7.76,17.31-13.65,4.05-5.88,6.07-12.76,6.07-20.63s-2-14.53-5.99-19.97c-3.99-5.43-9.48-9.73-16.47-12.9ZM105.67,170.11h33.28v71.32c0,1.74.81,3.39,2.18,4.46l24.22,18.81c1.85,1.44,4.55.12,4.55-2.23v-92.36h33.28v-27.96h-97.51v27.96ZM293.54,215.54c0,4.88-.89,9.07-2.66,12.56-1.78,3.5-4.38,6.19-7.82,8.07-3.44,1.89-7.65,2.83-12.65,2.83s-9.21-.94-12.65-2.83c-3.44-1.89-6.07-4.6-7.9-8.15-1.83-3.55-2.74-7.71-2.74-12.48v-49.55c0-1.74-.81-3.39-2.18-4.46l-24.22-18.78c-1.85-1.44-4.55-.12-4.55,2.23v69.89c0,10.87,2.11,20.28,6.32,28.21,4.21,7.93,10.34,14.06,18.39,18.39,8.04,4.33,17.89,6.49,29.54,6.49s21.49-2.16,29.54-6.49c8.04-4.33,14.14-10.45,18.3-18.39,4.16-7.93,6.24-17.33,6.24-28.21v-48.73c0-1.74-.8-3.38-2.17-4.45l-24.23-18.91c-1.85-1.45-4.56-.13-4.56,2.22v70.54ZM455.12,178.77c2.77,7.21,4.16,14.87,4.16,22.96v3.66c0,7.43-1.39,14.73-4.16,21.88-2.77,7.16-6.93,13.59-12.48,19.3-5.55,5.72-12.46,10.26-20.72,13.64-8.27,3.39-17.89,5.07-28.87,5.07h-46.26v-123.14h46.26c10.98,0,20.61,1.55,28.87,4.66,8.26,3.11,15.17,7.41,20.72,12.9,5.55,5.49,9.71,11.84,12.48,19.05ZM428,203.56c0-5.33-.78-10.01-2.33-14.06-1.55-4.05-3.77-7.43-6.66-10.15-2.89-2.72-6.41-4.77-10.57-6.16-4.16-1.39-8.85-2.08-14.06-2.08h-16.64v65.23h16.64c5.21,0,9.9-.75,14.06-2.25,4.16-1.5,7.68-3.66,10.57-6.49,2.88-2.83,5.1-6.27,6.66-10.32,1.55-4.05,2.33-8.62,2.33-13.73ZM478.78,245.98l24.22,18.72c1.85,1.43,4.55.11,4.55-2.23v-96.52c0-1.75-.81-3.39-2.19-4.46l-24.22-18.74c-1.85-1.43-4.55-.11-4.55,2.23v96.54c0,1.75.81,3.39,2.19,4.46Z"/>
</svg>